# xmcd
#
# Track frame offsets:
#	150
#	21054
#	35536
#	51870
#	75035
#	96756
#	107976
#	125704
#	142800
#	165839
#	190900
#	207930
#
# Disc length: 3075 seconds
# Revision: 2
# Processed by: cddbd v1.5.2PL0 Copyright (c) Steve Scherf et al.
# Submitted via: dBpowerAMP V12.0
#
DISCID=920c010c
DTITLE=The Brothers Comatose - Songs From the Stoop
DYEAR=2009
DGENRE=Country
TTITLE0=Trippin' on Down
TTITLE1=Church Street Blues
TTITLE2=The Ballad of Tommy Decker (King of Haight)
TTITLE3=Dead Flowers
TTITLE4=Roots
TTITLE5=Down to the River
TTITLE6=Pine Box
TTITLE7=Alley of the Oaks
TTITLE8=Into the Old
TTITLE9=Legacy
TTITLE10=26 on the List
TTITLE11=Swamp Jam
EXTD=
EXTT0=
EXTT1=
EXTT2=
EXTT3=
EXTT4=
EXTT5=
EXTT6=
EXTT7=
EXTT8=
EXTT9=
EXTT10=
EXTT11=
PLAYORDER=
